
<svg version="1.0" xmlns="http://www.w3.org/2000/svg"
 width="618.000000pt" height="403.000000pt" viewBox="0 0 601.000000 10.000000"
 preserveAspectRatio="xMidYMid meet">

<g transform="translate(0.000000,403.000000) scale(0.100000,-0.100000)"
fill="rgb(255, 255, 255)" stroke="none">
<path d="M2865 2834 c-446 -32 -564 -57 -1020 -209 -464 -156 -525 -164 -853
-123 -192 23 -212 21 -231 -33 -11 -31 -6 -52 33 -146 l26 -63 -39 -35 c-146
-133 -185 -370 -93 -578 11 -26 25 -47 30 -47 5 0 33 34 63 76 l54 76 0 101
c0 91 4 108 27 153 29 55 88 112 147 141 26 13 59 18 116 18 68 0 88 -5 132
-28 58 -30 124 -105 145 -164 21 -61 16 -180 -10 -233 -50 -104 -137 -168
-240 -177 l-57 -5 -58 -78 c-31 -43 -57 -82 -57 -88 0 -17 65 -27 160 -26 96
2 145 16 136 40 -8 22 18 79 45 98 30 20 68 21 97 0 22 -15 25 -15 49 7 14 13
40 46 59 73 l33 49 -24 29 c-49 58 -22 148 46 163 l32 7 -7 72 c-9 102 -14
116 -43 116 -56 0 -102 46 -103 101 0 58 15 69 80 58 84 -14 558 -27 1530 -40
725 -10 956 -10 1280 1 442 14 511 10 662 -40 150 -50 291 -131 452 -260 83
-66 88 -62 33 28 -96 160 -270 288 -482 355 -115 36 -201 46 -476 53 l-243 7
-95 75 c-305 239 -611 387 -931 451 -94 19 -307 32 -405 25z m230 -94 c199
-19 369 -66 560 -155 109 -50 316 -170 364 -210 32 -28 40 -62 19 -83 -18 -18
-977 -17 -1001 1 -20 14 -197 391 -197 417 0 41 59 48 255 30z m-382 -28 c9
-10 55 -101 103 -202 64 -137 84 -188 77 -200 -14 -21 -160 -24 -523 -10 -362
14 -486 29 -563 66 -64 32 -83 57 -68 96 7 20 27 32 88 56 117 44 284 97 418
131 102 26 170 39 385 74 52 9 67 7 83 -11z"/>
<path d="M1057 2080 c-88 -27 -152 -128 -144 -228 3 -31 8 -69 12 -83 6 -22
-5 -43 -74 -135 l-81 -109 35 -35 c19 -20 47 -43 63 -52 l28 -17 84 112 85
112 42 -3 c99 -8 197 59 222 151 14 49 11 141 -6 158 -6 6 -31 -21 -68 -72
-48 -64 -64 -79 -80 -75 -11 3 -35 6 -52 6 -28 0 -35 5 -48 37 -29 70 -29 74
29 153 31 41 56 78 56 83 0 9 -67 8 -103 -3z"/>
<path d="M2370 1670 l0 -290 40 0 40 0 0 290 0 290 -40 0 -40 0 0 -290z"/>
<path d="M3933 1945 c-17 -7 -36 -22 -42 -34 -15 -27 -15 -455 0 -483 18 -34
70 -48 184 -48 l105 0 0 40 0 40 -110 0 -110 0 0 210 0 210 110 0 110 0 0 40
0 40 -107 0 c-69 -1 -119 -6 -140 -15z"/>
<path d="M3000 1885 c0 -52 -1 -55 -25 -55 -21 0 -25 -5 -25 -30 0 -25 4 -30
24 -30 l25 0 3 -170 c4 -205 6 -209 112 -217 l66 -6 0 37 0 36 -50 0 -50 0 0
160 0 160 50 0 c49 0 50 1 50 30 0 29 -1 30 -50 30 l-50 0 0 55 0 55 -40 0
-40 0 0 -55z"/>
<path d="M2580 1605 l0 -225 38 0 37 0 0 187 0 188 73 3 72 3 0 -191 0 -190
40 0 40 0 0 200 c0 200 0 201 -25 225 -21 22 -33 25 -91 25 -56 0 -72 -4 -91
-22 l-23 -21 0 21 c0 18 -6 22 -35 22 l-35 0 0 -225z"/>
<path d="M3259 1811 c-23 -19 -24 -25 -27 -183 -2 -99 1 -174 7 -191 16 -42
64 -57 181 -57 l100 0 0 35 0 35 -105 0 -105 0 0 55 0 55 110 0 110 0 0 110
c0 104 -1 112 -25 135 -22 23 -31 25 -123 25 -83 0 -104 -3 -123 -19z m191
-121 l0 -70 -70 0 -70 0 0 70 0 70 70 0 70 0 0 -70z"/>
<path d="M3620 1605 l0 -225 40 0 40 0 0 190 0 189 58 3 c56 3 57 3 60 36 3
31 2 32 -37 32 -28 0 -48 -7 -61 -20 -11 -11 -22 -20 -25 -20 -3 0 -5 9 -5 20
0 16 -7 20 -35 20 l-35 0 0 -225z"/>
<path d="M4260 1795 l0 -34 98 -3 97 -3 0 -50 0 -50 -87 -5 c-121 -7 -133 -20
-133 -135 0 -75 3 -87 23 -107 19 -20 33 -23 93 -23 63 0 72 3 89 25 l20 25 0
-27 c0 -25 4 -28 35 -28 l35 0 0 200 c0 200 0 201 -25 225 -23 24 -31 25 -135
25 l-110 0 0 -35z m195 -275 l0 -65 -72 -3 -73 -3 0 71 0 71 73 -3 72 -3 0
-65z"/>
<path d="M4630 1605 l0 -225 40 0 40 0 0 190 0 190 55 0 55 0 0 35 c0 33 -2
35 -35 35 -22 0 -43 -8 -55 -20 -11 -11 -22 -20 -25 -20 -3 0 -5 9 -5 20 0 16
-7 20 -35 20 l-35 0 0 -225z"/>
<path d="M2928 1093 c7 -3 16 -2 19 1 4 3 -2 6 -13 5 -11 0 -14 -3 -6 -6z"/>
<path d="M2763 1063 c9 -2 23 -2 30 0 6 3 -1 5 -18 5 -16 0 -22 -2 -12 -5z"/>
</g>
</svg>
